<svg width="206" height="44" viewBox="0 0 206 44" fill="none" xmlns="http://www.w3.org/2000/svg">
<path d="M181.412 43.2787V37.6284H190.528V6.85246H181.532V1.20218H205.88V6.85246H196.885V37.6284H206V43.2787H181.412Z" fill="#0026FF"/>
<path d="M144.014 43.2787V1.20218H158.227C161.426 1.20218 164.064 1.7632 166.143 2.88524C168.222 3.96721 169.762 5.46994 170.761 7.39344C171.761 9.31694 172.26 11.5209 172.26 14.0055C172.26 16.49 171.761 18.694 170.761 20.6175C169.762 22.541 168.222 24.0637 166.143 25.1858C164.064 26.2678 161.426 26.8087 158.227 26.8087H150.371V43.2787H144.014ZM150.371 21.0984H157.927C160.646 21.0984 162.625 20.4572 163.864 19.1749C165.144 17.8925 165.784 16.1694 165.784 14.0055C165.784 11.8816 165.144 10.1785 163.864 8.89617C162.625 7.57377 160.646 6.91257 157.927 6.91257H150.371V21.0984Z" fill="#0026FF"/>
<path d="M105.477 43.2787L118.011 1.20218H125.567L138.101 43.2787H131.204L128.386 33.1803H115.192L112.374 43.2787H105.477ZM121.609 10.2186L116.631 28.071H126.946L121.969 10.2186H121.609Z" fill="#0026FF"/>
<path d="M74.7958 43.2787L68.319 13.4645H74.5559L78.1541 34.3825L82.412 13.4645H89.2486L93.5064 34.3825L97.1047 13.4645H103.342L96.8648 43.2787H90.328L85.8303 21.7596L81.3325 43.2787H74.7958Z" fill="white"/>
<path d="M50.2915 44C47.5328 44 45.0541 43.3588 42.8552 42.0765C40.6963 40.7942 38.9971 38.9909 37.7577 36.6667C36.5183 34.3024 35.8986 31.5373 35.8986 28.3716C35.8986 25.2058 36.5183 22.4608 37.7577 20.1366C39.0371 17.8124 40.7562 16.0091 42.9151 14.7268C45.0741 13.4044 47.5328 12.7432 50.2915 12.7432C54.0896 12.7432 57.148 13.7049 59.4669 15.6284C61.8257 17.5118 63.325 20.1166 63.9646 23.4426H57.308C56.9082 22 56.0886 20.8579 54.8492 20.0164C53.6498 19.1749 52.1106 18.7541 50.2315 18.7541C48.8722 18.7541 47.5728 19.1148 46.3334 19.8361C45.134 20.5574 44.1545 21.6393 43.3949 23.082C42.6753 24.4845 42.3154 26.2477 42.3154 28.3716C42.3154 30.4554 42.6753 32.2186 43.3949 33.6612C44.1545 35.1038 45.134 36.2058 46.3334 36.9672C47.5728 37.6885 48.8722 38.0492 50.2315 38.0492C52.1505 38.0492 53.6898 37.6284 54.8492 36.7869C56.0086 35.9454 56.8282 34.7832 57.308 33.3005H63.9646C63.165 36.5865 61.6058 39.1913 59.287 41.1148C56.9681 43.0383 53.9696 44 50.2915 44Z" fill="white"/>
<path d="M0 43.2787V37.7486H9.95503V7.51366C9.95503 6.19126 9.31535 5.53005 8.03599 5.53005H0.839581V0H9.17542C11.4943 0 13.2534 0.62113 14.4528 1.86339C15.6922 3.06557 16.3119 4.82878 16.3119 7.15301V37.7486H26.3269V43.2787H0Z" fill="white"/>
</svg>
