<svg width="214" height="84" viewBox="0 0 214 84" fill="none" xmlns="http://www.w3.org/2000/svg">
<path d="M2.26399 35V1.4H8.40799V30.2H23.288V35H2.26399Z" fill="#0026FF"/>
<path d="M31.8695 7.496C30.7495 7.496 29.8215 7.16 29.0855 6.488C28.3815 5.816 28.0295 4.968 28.0295 3.944C28.0295 2.92 28.3815 2.088 29.0855 1.448C29.8215 0.776002 30.7495 0.440002 31.8695 0.440002C32.9895 0.440002 33.9015 0.776002 34.6055 1.448C35.3415 2.088 35.7095 2.92 35.7095 3.944C35.7095 4.968 35.3415 5.816 34.6055 6.488C33.9015 7.16 32.9895 7.496 31.8695 7.496ZM28.7975 35V11.192H34.9415V35H28.7975Z" fill="#0026FF"/>
<path d="M47.7864 35L39.0504 11.192H45.4824L51.5304 29.192L57.5784 11.192H64.0104L55.2264 35H47.7864Z" fill="#0026FF"/>
<path d="M78.2817 35.576C75.8817 35.576 73.7537 35.064 71.8977 34.04C70.0417 33.016 68.5857 31.576 67.5297 29.72C66.4737 27.864 65.9457 25.72 65.9457 23.288C65.9457 20.824 66.4577 18.632 67.4817 16.712C68.5377 14.792 69.9777 13.304 71.8017 12.248C73.6577 11.16 75.8337 10.616 78.3297 10.616C80.6657 10.616 82.7297 11.128 84.5217 12.152C86.3137 13.176 87.7057 14.584 88.6977 16.376C89.7217 18.136 90.2337 20.104 90.2337 22.28C90.2337 22.632 90.2177 23 90.1857 23.384C90.1857 23.768 90.1697 24.168 90.1377 24.584H72.0417C72.1697 26.44 72.8097 27.896 73.9617 28.952C75.1457 30.008 76.5697 30.536 78.2337 30.536C79.4817 30.536 80.5217 30.264 81.3537 29.72C82.2177 29.144 82.8577 28.408 83.2737 27.512H89.5137C89.0657 29.016 88.3137 30.392 87.2577 31.64C86.2337 32.856 84.9537 33.816 83.4177 34.52C81.9137 35.224 80.2017 35.576 78.2817 35.576ZM78.3297 15.608C76.8257 15.608 75.4977 16.04 74.3457 16.904C73.1937 17.736 72.4577 19.016 72.1377 20.744H83.9937C83.8977 19.176 83.3217 17.928 82.2657 17C81.2097 16.072 79.8977 15.608 78.3297 15.608Z" fill="#0026FF"/>
<path d="M122.199 35.576C118.807 35.576 115.895 34.856 113.463 33.416C111.031 31.944 109.159 29.912 107.847 27.32C106.535 24.696 105.879 21.672 105.879 18.248C105.879 14.824 106.535 11.8 107.847 9.176C109.159 6.552 111.031 4.504 113.463 3.032C115.895 1.56 118.807 0.824003 122.199 0.824003C126.231 0.824003 129.527 1.832 132.087 3.848C134.679 5.832 136.295 8.632 136.935 12.248H130.167C129.751 10.424 128.855 9 127.479 7.976C126.135 6.92 124.343 6.392 122.103 6.392C118.999 6.392 116.567 7.448 114.807 9.56C113.047 11.672 112.167 14.568 112.167 18.248C112.167 21.928 113.047 24.824 114.807 26.936C116.567 29.016 118.999 30.056 122.103 30.056C124.343 30.056 126.135 29.576 127.479 28.616C128.855 27.624 129.751 26.264 130.167 24.536H136.935C136.295 27.992 134.679 30.696 132.087 32.648C129.527 34.6 126.231 35.576 122.199 35.576Z" fill="#0026FF"/>
<path d="M142.229 35V0.440002H148.373V14.84C149.173 13.528 150.245 12.504 151.589 11.768C152.965 11 154.533 10.616 156.293 10.616C159.237 10.616 161.509 11.544 163.109 13.4C164.741 15.256 165.557 17.976 165.557 21.56V35H159.461V22.136C159.461 20.088 159.045 18.52 158.213 17.432C157.413 16.344 156.133 15.8 154.373 15.8C152.645 15.8 151.205 16.408 150.053 17.624C148.933 18.84 148.373 20.536 148.373 22.712V35H142.229Z" fill="#0026FF"/>
<path d="M179.64 35.576C177.592 35.576 175.912 35.256 174.6 34.616C173.288 33.944 172.312 33.064 171.672 31.976C171.032 30.888 170.712 29.688 170.712 28.376C170.712 26.168 171.576 24.376 173.304 23C175.032 21.624 177.624 20.936 181.08 20.936H187.128V20.36C187.128 18.728 186.664 17.528 185.736 16.76C184.808 15.992 183.656 15.608 182.28 15.608C181.032 15.608 179.944 15.912 179.016 16.52C178.088 17.096 177.512 17.96 177.288 19.112H171.288C171.448 17.384 172.024 15.88 173.016 14.6C174.04 13.32 175.352 12.344 176.952 11.672C178.552 10.968 180.344 10.616 182.328 10.616C185.72 10.616 188.392 11.464 190.344 13.16C192.296 14.856 193.272 17.256 193.272 20.36V35H188.04L187.464 31.16C186.76 32.44 185.768 33.496 184.488 34.328C183.24 35.16 181.624 35.576 179.64 35.576ZM181.032 30.776C182.792 30.776 184.152 30.2 185.112 29.048C186.104 27.896 186.728 26.472 186.984 24.776H181.752C180.12 24.776 178.952 25.08 178.248 25.688C177.544 26.264 177.192 26.984 177.192 27.848C177.192 28.776 177.544 29.496 178.248 30.008C178.952 30.52 179.88 30.776 181.032 30.776Z" fill="#0026FF"/>
<path d="M209.415 35C206.919 35 204.919 34.392 203.415 33.176C201.911 31.96 201.159 29.8 201.159 26.696V16.328H197.079V11.192H201.159L201.879 4.808H207.303V11.192H213.735V16.328H207.303V26.744C207.303 27.896 207.543 28.696 208.023 29.144C208.535 29.56 209.399 29.768 210.615 29.768H213.591V35H209.415Z" fill="#0026FF"/>
<path d="M9.46399 83.048L0.247986 49.4H4.56799L11.816 78.248L20.072 49.4H24.536L32.552 78.248L39.896 49.4H44.216L34.808 83H30.2L22.184 55.256L13.976 83L9.46399 83.048Z" fill="black"/>
<path d="M56.9847 83.576C54.7127 83.576 52.6967 83.064 50.9367 82.04C49.1767 80.984 47.7847 79.528 46.7607 77.672C45.7687 75.816 45.2727 73.624 45.2727 71.096C45.2727 68.6 45.7687 66.424 46.7607 64.568C47.7527 62.68 49.1287 61.224 50.8887 60.2C52.6807 59.144 54.7447 58.616 57.0807 58.616C59.3847 58.616 61.3687 59.144 63.0327 60.2C64.7287 61.224 66.0247 62.584 66.9207 64.28C67.8167 65.976 68.2647 67.8 68.2647 69.752C68.2647 70.104 68.2487 70.456 68.2167 70.808C68.2167 71.16 68.2167 71.56 68.2167 72.008H49.2567C49.3527 73.832 49.7687 75.352 50.5047 76.568C51.2727 77.752 52.2167 78.648 53.3367 79.256C54.4887 79.864 55.7047 80.168 56.9847 80.168C58.6487 80.168 60.0407 79.784 61.1607 79.016C62.2807 78.248 63.0967 77.208 63.6087 75.896H67.5927C66.9527 78.104 65.7207 79.944 63.8967 81.416C62.1047 82.856 59.8007 83.576 56.9847 83.576ZM56.9847 62.024C55.0647 62.024 53.3527 62.616 51.8487 63.8C50.3767 64.952 49.5287 66.648 49.3047 68.888H64.2807C64.1847 66.744 63.4487 65.064 62.0727 63.848C60.6967 62.632 59.0007 62.024 56.9847 62.024Z" fill="black"/>
<path d="M86.3289 83.576C84.3769 83.576 82.6329 83.176 81.0969 82.376C79.5929 81.576 78.4409 80.456 77.6409 79.016L77.2569 83H73.6089V48.44H77.6409V63.128C78.4089 61.976 79.4969 60.936 80.9049 60.008C82.3449 59.08 84.1689 58.616 86.3769 58.616C88.7449 58.616 90.8089 59.16 92.5689 60.248C94.3289 61.336 95.6889 62.824 96.6489 64.712C97.6409 66.6 98.1369 68.744 98.1369 71.144C98.1369 73.544 97.6409 75.688 96.6489 77.576C95.6889 79.432 94.3129 80.904 92.5209 81.992C90.7609 83.048 88.6969 83.576 86.3289 83.576ZM85.8969 80.072C87.4969 80.072 88.9049 79.704 90.1209 78.968C91.3369 78.2 92.2969 77.144 93.0009 75.8C93.7049 74.456 94.0569 72.888 94.0569 71.096C94.0569 69.304 93.7049 67.736 93.0009 66.392C92.2969 65.048 91.3369 64.008 90.1209 63.272C88.9049 62.504 87.4969 62.12 85.8969 62.12C84.2969 62.12 82.8889 62.504 81.6729 63.272C80.4569 64.008 79.4969 65.048 78.7929 66.392C78.0889 67.736 77.7369 69.304 77.7369 71.096C77.7369 72.888 78.0889 74.456 78.7929 75.8C79.4969 77.144 80.4569 78.2 81.6729 78.968C82.8889 79.704 84.2969 80.072 85.8969 80.072Z" fill="black"/>
<path d="M114.581 83L126.965 49.4H131.237L143.573 83H139.301L136.229 74.36H121.925L118.805 83H114.581ZM123.125 71.096H135.029L129.077 54.488L123.125 71.096Z" fill="black"/>
<path d="M148.568 83V49.4H159.608C162.232 49.4 164.392 49.832 166.088 50.696C167.784 51.56 169.032 52.728 169.832 54.2C170.664 55.672 171.08 57.336 171.08 59.192C171.08 61.016 170.68 62.664 169.88 64.136C169.08 65.608 167.832 66.792 166.136 67.688C164.44 68.552 162.264 68.984 159.608 68.984H152.6V83H148.568ZM152.6 65.576H159.512C162.2 65.576 164.104 65.016 165.224 63.896C166.376 62.744 166.952 61.176 166.952 59.192C166.952 57.176 166.376 55.608 165.224 54.488C164.104 53.336 162.2 52.76 159.512 52.76H152.6V65.576Z" fill="black"/>
<path d="M176.364 83V49.4H180.396V83H176.364Z" fill="black"/>
</svg>
