<svg width="299" height="48" viewBox="0 0 299 48" fill="none" xmlns="http://www.w3.org/2000/svg">
<path d="M0.35199 47V41.112H10.976V8.91999C10.976 7.51199 10.2933 6.80799 8.92799 6.80799H1.24799V0.919987H10.144C12.6187 0.919987 14.496 1.58132 15.776 2.90399C17.0987 4.18399 17.76 6.06132 17.76 8.53599V41.112H28.448V47H0.35199Z" fill="black"/>
<path d="M54.023 47.768C51.079 47.768 48.4337 47.0853 46.087 45.72C43.783 44.3547 41.9697 42.4347 40.647 39.96C39.3243 37.4427 38.663 34.4987 38.663 31.128C38.663 27.7573 39.3243 24.8347 40.647 22.36C42.0123 19.8853 43.847 17.9653 46.151 16.6C48.455 15.192 51.079 14.488 54.023 14.488C58.0763 14.488 61.3403 15.512 63.815 17.56C66.3323 19.5653 67.9323 22.3387 68.615 25.88H61.511C61.0843 24.344 60.2097 23.128 58.887 22.232C57.607 21.336 55.9643 20.888 53.959 20.888C52.5083 20.888 51.1217 21.272 49.799 22.04C48.519 22.808 47.4737 23.96 46.663 25.496C45.895 26.9893 45.511 28.8667 45.511 31.128C45.511 33.3467 45.895 35.224 46.663 36.76C47.4737 38.296 48.519 39.4693 49.799 40.28C51.1217 41.048 52.5083 41.432 53.959 41.432C56.007 41.432 57.6497 40.984 58.887 40.088C60.1243 39.192 60.999 37.9547 61.511 36.376H68.615C67.7617 39.8747 66.0977 42.648 63.623 44.696C61.1483 46.744 57.9483 47.768 54.023 47.768Z" fill="black"/>
<path d="M80.174 47L73.262 15.256H79.918L83.758 37.528L88.302 15.256H95.598L100.142 37.528L103.982 15.256H110.638L103.726 47H96.75L91.95 24.088L87.15 47H80.174Z" fill="black"/>
<path d="M112.917 47L126.293 2.19999H134.357L147.733 47H140.373L137.365 36.248H123.285L120.277 47H112.917ZM130.133 11.8L124.821 30.808H135.829L130.517 11.8H130.133Z" fill="#0026FF"/>
<path d="M166.972 47.768C164.327 47.768 161.959 47.1493 159.868 45.912C157.777 44.632 156.113 42.7547 154.876 40.28C153.681 37.8053 153.084 34.7547 153.084 31.128C153.084 27.5013 153.703 24.4507 154.94 21.976C156.177 19.5013 157.841 17.6453 159.932 16.408C162.065 15.128 164.433 14.488 167.036 14.488C169.468 14.488 171.473 14.9573 173.052 15.896C174.631 16.792 175.804 17.944 176.572 19.352V0.919987H183.356V47H177.532L176.956 42.328H176.572C175.719 43.992 174.503 45.3147 172.924 46.296C171.388 47.2773 169.404 47.768 166.972 47.768ZM168.38 41.304C170.812 41.304 172.817 40.4507 174.396 38.744C176.017 37.0373 176.828 34.4987 176.828 31.128C176.828 27.7147 176.017 25.176 174.396 23.512C172.817 21.8053 170.812 20.952 168.38 20.952C165.948 20.952 163.921 21.8053 162.3 23.512C160.721 25.2187 159.932 27.7787 159.932 31.192C159.932 34.5627 160.721 37.1013 162.3 38.808C163.921 40.472 165.948 41.304 168.38 41.304Z" fill="#0026FF"/>
<path d="M189.475 47V15.256H195.107L195.683 18.968H196.003C196.558 17.6453 197.411 16.5787 198.563 15.768C199.715 14.9147 201.08 14.488 202.659 14.488C204.195 14.488 205.539 14.872 206.691 15.64C207.843 16.408 208.696 17.5173 209.251 18.968H209.507C210.062 17.688 210.936 16.6213 212.131 15.768C213.326 14.9147 214.798 14.488 216.547 14.488C218.894 14.488 220.664 15.256 221.859 16.792C223.096 18.328 223.715 20.4827 223.715 23.256V47H217.187V24.6C217.187 23.32 216.91 22.3173 216.355 21.592C215.843 20.824 215.011 20.44 213.859 20.44C212.707 20.44 211.747 20.888 210.979 21.784C210.254 22.68 209.891 23.9387 209.891 25.56V47H203.299V24.6C203.299 23.32 203.043 22.3173 202.531 21.592C202.019 20.824 201.187 20.44 200.035 20.44C198.883 20.44 197.923 20.888 197.155 21.784C196.387 22.68 196.003 23.9387 196.003 25.56V47H189.475Z" fill="#0026FF"/>
<path d="M244.81 10.392C243.317 10.392 242.058 9.92265 241.034 8.98399C240.053 8.00265 239.562 6.80799 239.562 5.39999C239.562 3.99199 240.053 2.81865 241.034 1.87999C242.058 0.941319 243.317 0.471985 244.81 0.471985C246.346 0.471985 247.605 0.941319 248.586 1.87999C249.61 2.81865 250.122 3.99199 250.122 5.39999C250.122 6.80799 249.61 8.00265 248.586 8.98399C247.605 9.92265 246.346 10.392 244.81 10.392ZM232.074 47V41.112H242.058V23.256C242.058 21.848 241.375 21.144 240.01 21.144H232.97V15.256H241.226C243.871 15.256 245.791 15.8747 246.986 17.112C248.223 18.3067 248.842 20.2267 248.842 22.872V41.112H258.826V47H232.074Z" fill="#0026FF"/>
<path d="M269.617 47V15.256H275.505L276.081 19.992H276.401C277.254 18.456 278.577 17.1547 280.369 16.088C282.161 15.0213 284.23 14.488 286.577 14.488C290.46 14.488 293.382 15.6613 295.345 18.008C297.308 20.3547 298.289 23.8107 298.289 28.376V47H291.505V29.208C291.505 26.5627 290.95 24.5147 289.841 23.064C288.732 21.6133 286.982 20.888 284.593 20.888C282.246 20.888 280.284 21.6773 278.705 23.256C277.169 24.8347 276.401 27.1173 276.401 30.104V47H269.617Z" fill="#0026FF"/>
</svg>
